<?xml version="1.0" encoding="iso-8859-1"?>
<!-- Uploaded to: SVG Repo, www.svgrepo.com, Generator: SVG Repo Mixer Tools -->
<svg height="20px" width="20px" version="1.1" id="Layer_1" xmlns="http://www.w3.org/2000/svg" xmlns:xlink="http://www.w3.org/1999/xlink" 
	 viewBox="0 0 500 400" xml:space="preserve">
<path style="fill:#E6EEF3;" d="M353.103,220.69c-5.297,0-8.828-3.531-8.828-8.828v-17.655c0-5.297,3.531-8.828,8.828-8.828
	s8.828,3.531,8.828,8.828v17.655C361.931,217.159,358.4,220.69,353.103,220.69"/>
<polygon style="fill:#CAD3DB;" points="256,61.793 256,0 150.069,0 150.069,61.793 114.759,61.793 114.759,300.138 185.379,300.138 
	185.379,247.172 291.31,247.172 291.31,61.793 "/>
<g>
	<polygon style="fill:#E6EEF3;" points="8.828,512 185.379,512 185.379,300.138 8.828,300.138 	"/>
	<polygon style="fill:#E6EEF3;" points="185.379,512 397.241,512 397.241,247.172 185.379,247.172 	"/>
</g>
<g>
	<polygon style="fill:#CAD3DB;" points="26.483,300.138 79.448,300.138 79.448,264.828 26.483,264.828 	"/>
	<polygon style="fill:#CAD3DB;" points="114.759,512 185.379,512 185.379,335.448 114.759,335.448 	"/>
	<path style="fill:#CAD3DB;" d="M220.69,494.345c-5.297,0-8.828-3.531-8.828-8.828V282.483c0-5.297,3.531-8.828,8.828-8.828
		s8.828,3.531,8.828,8.828v203.034C229.517,490.814,225.986,494.345,220.69,494.345"/>
	<path style="fill:#CAD3DB;" d="M256,494.345c-5.297,0-8.828-3.531-8.828-8.828V282.483c0-5.297,3.531-8.828,8.828-8.828
		c5.297,0,8.828,3.531,8.828,8.828v203.034C264.828,490.814,261.297,494.345,256,494.345"/>
	<path style="fill:#CAD3DB;" d="M291.31,494.345c-5.297,0-8.828-3.531-8.828-8.828V282.483c0-5.297,3.531-8.828,8.828-8.828
		s8.828,3.531,8.828,8.828v203.034C300.138,490.814,296.607,494.345,291.31,494.345"/>
	<path style="fill:#CAD3DB;" d="M326.621,494.345c-5.297,0-8.828-3.531-8.828-8.828V282.483c0-5.297,3.531-8.828,8.828-8.828
		s8.828,3.531,8.828,8.828v203.034C335.448,490.814,331.917,494.345,326.621,494.345"/>
	<path style="fill:#CAD3DB;" d="M361.931,494.345c-5.297,0-8.828-3.531-8.828-8.828V282.483c0-5.297,3.531-8.828,8.828-8.828
		s8.828,3.531,8.828,8.828v203.034C370.759,490.814,367.228,494.345,361.931,494.345"/>
	<polygon style="fill:#CAD3DB;" points="335.448,247.172 370.759,247.172 370.759,211.862 335.448,211.862 	"/>
	<polygon style="fill:#CAD3DB;" points="397.241,512 503.172,512 503.172,97.103 397.241,97.103 	"/>
</g>
<g>
	<polygon style="fill:#E6EEF3;" points="423.724,97.103 476.69,97.103 476.69,61.793 423.724,61.793 	"/>
	<path style="fill:#E6EEF3;" d="M185.379,379.586h-35.31c-5.297,0-8.828-3.531-8.828-8.828s3.531-8.828,8.828-8.828h35.31
		c5.297,0,8.828,3.531,8.828,8.828S190.676,379.586,185.379,379.586"/>
	<path style="fill:#E6EEF3;" d="M185.379,414.897h-35.31c-5.297,0-8.828-3.531-8.828-8.828s3.531-8.828,8.828-8.828h35.31
		c5.297,0,8.828,3.531,8.828,8.828S190.676,414.897,185.379,414.897"/>
	<path style="fill:#E6EEF3;" d="M185.379,450.207h-35.31c-5.297,0-8.828-3.531-8.828-8.828s3.531-8.828,8.828-8.828h35.31
		c5.297,0,8.828,3.531,8.828,8.828S190.676,450.207,185.379,450.207"/>
	<path style="fill:#E6EEF3;" d="M185.379,485.517h-35.31c-5.297,0-8.828-3.531-8.828-8.828s3.531-8.828,8.828-8.828h35.31
		c5.297,0,8.828,3.531,8.828,8.828S190.676,485.517,185.379,485.517"/>
	<path style="fill:#E6EEF3;" d="M150.069,308.966c-5.297,0-8.828-3.531-8.828-8.828V97.103c0-5.297,3.531-8.828,8.828-8.828
		s8.828,3.531,8.828,8.828v203.034C158.897,305.434,155.366,308.966,150.069,308.966"/>
	<path style="fill:#E6EEF3;" d="M185.379,229.517c-5.297,0-8.828-3.531-8.828-8.828V97.103c0-5.297,3.531-8.828,8.828-8.828
		s8.828,3.531,8.828,8.828V220.69C194.207,225.986,190.676,229.517,185.379,229.517"/>
	<path style="fill:#E6EEF3;" d="M220.69,229.517c-5.297,0-8.828-3.531-8.828-8.828V97.103c0-5.297,3.531-8.828,8.828-8.828
		s8.828,3.531,8.828,8.828V220.69C229.517,225.986,225.986,229.517,220.69,229.517"/>
	<path style="fill:#E6EEF3;" d="M256,229.517c-5.297,0-8.828-3.531-8.828-8.828V97.103c0-5.297,3.531-8.828,8.828-8.828
		c5.297,0,8.828,3.531,8.828,8.828V220.69C264.828,225.986,261.297,229.517,256,229.517"/>
	<path style="fill:#E6EEF3;" d="M432.552,160.662c-5.297,0-8.828-3.531-8.828-8.828v-17.655c0-5.297,3.531-8.828,8.828-8.828
		s8.828,3.531,8.828,8.828v17.655C441.379,156.248,437.848,160.662,432.552,160.662 M432.552,213.628
		c-5.297,0-8.828-3.531-8.828-8.828v-17.655c0-5.297,3.531-8.828,8.828-8.828s8.828,3.531,8.828,8.828V204.8
		C441.379,209.214,437.848,213.628,432.552,213.628 M432.552,266.593c-5.297,0-8.828-3.531-8.828-8.828V240.11
		c0-5.297,3.531-8.828,8.828-8.828s8.828,3.531,8.828,8.828v17.655C441.379,262.179,437.848,266.593,432.552,266.593
		 M432.552,319.559c-5.297,0-8.828-3.531-8.828-8.828v-17.655c0-5.297,3.531-8.828,8.828-8.828s8.828,3.531,8.828,8.828v17.655
		C441.379,315.145,437.848,319.559,432.552,319.559 M432.552,372.524c-5.297,0-8.828-3.531-8.828-8.828v-17.655
		c0-5.297,3.531-8.828,8.828-8.828s8.828,3.531,8.828,8.828v17.655C441.379,368.11,437.848,372.524,432.552,372.524 M432.552,425.49
		c-5.297,0-8.828-3.531-8.828-8.828v-17.655c0-5.297,3.531-8.828,8.828-8.828s8.828,3.531,8.828,8.828v17.655
		C441.379,421.076,437.848,425.49,432.552,425.49 M432.552,478.455c-5.297,0-8.828-3.531-8.828-8.828v-17.655
		c0-5.297,3.531-8.828,8.828-8.828s8.828,3.531,8.828,8.828v17.655C441.379,474.041,437.848,478.455,432.552,478.455"/>
	<path style="fill:#E6EEF3;" d="M467.862,160.662c-5.297,0-8.828-3.531-8.828-8.828v-17.655c0-5.297,3.531-8.828,8.828-8.828
		s8.828,3.531,8.828,8.828v17.655C476.69,156.248,473.159,160.662,467.862,160.662 M467.862,213.628
		c-5.297,0-8.828-3.531-8.828-8.828v-17.655c0-5.297,3.531-8.828,8.828-8.828s8.828,3.531,8.828,8.828V204.8
		C476.69,209.214,473.159,213.628,467.862,213.628 M467.862,266.593c-5.297,0-8.828-3.531-8.828-8.828V240.11
		c0-5.297,3.531-8.828,8.828-8.828s8.828,3.531,8.828,8.828v17.655C476.69,262.179,473.159,266.593,467.862,266.593
		 M467.862,319.559c-5.297,0-8.828-3.531-8.828-8.828v-17.655c0-5.297,3.531-8.828,8.828-8.828s8.828,3.531,8.828,8.828v17.655
		C476.69,315.145,473.159,319.559,467.862,319.559 M467.862,372.524c-5.297,0-8.828-3.531-8.828-8.828v-17.655
		c0-5.297,3.531-8.828,8.828-8.828s8.828,3.531,8.828,8.828v17.655C476.69,368.11,473.159,372.524,467.862,372.524 M467.862,425.49
		c-5.297,0-8.828-3.531-8.828-8.828v-17.655c0-5.297,3.531-8.828,8.828-8.828s8.828,3.531,8.828,8.828v17.655
		C476.69,421.076,473.159,425.49,467.862,425.49 M467.862,478.455c-5.297,0-8.828-3.531-8.828-8.828v-17.655
		c0-5.297,3.531-8.828,8.828-8.828s8.828,3.531,8.828,8.828v17.655C476.69,474.041,473.159,478.455,467.862,478.455"/>
</g>
<g>
	<path style="fill:#CAD3DB;" d="M44.138,361.931c-5.297,0-8.828-3.531-8.828-8.828v-17.655c0-5.297,3.531-8.828,8.828-8.828
		s8.828,3.531,8.828,8.828v17.655C52.966,358.4,49.434,361.931,44.138,361.931 M44.138,414.897c-5.297,0-8.828-3.531-8.828-8.828
		v-17.655c0-5.297,3.531-8.828,8.828-8.828s8.828,3.531,8.828,8.828v17.655C52.966,411.366,49.434,414.897,44.138,414.897
		 M44.138,467.862c-5.297,0-8.828-3.531-8.828-8.828v-17.655c0-5.297,3.531-8.828,8.828-8.828s8.828,3.531,8.828,8.828v17.655
		C52.966,464.331,49.434,467.862,44.138,467.862"/>
	<path style="fill:#CAD3DB;" d="M79.448,361.931c-5.297,0-8.828-3.531-8.828-8.828v-17.655c0-5.297,3.531-8.828,8.828-8.828
		c5.297,0,8.828,3.531,8.828,8.828v17.655C88.276,358.4,84.745,361.931,79.448,361.931 M79.448,414.897
		c-5.297,0-8.828-3.531-8.828-8.828v-17.655c0-5.297,3.531-8.828,8.828-8.828c5.297,0,8.828,3.531,8.828,8.828v17.655
		C88.276,411.366,84.745,414.897,79.448,414.897 M79.448,467.862c-5.297,0-8.828-3.531-8.828-8.828v-17.655
		c0-5.297,3.531-8.828,8.828-8.828c5.297,0,8.828,3.531,8.828,8.828v17.655C88.276,464.331,84.745,467.862,79.448,467.862"/>
</g>
<g>
	<path style="fill:#E6EEF3;" d="M185.379,70.621c-5.297,0-8.828-3.531-8.828-8.828V35.31c0-5.297,3.531-8.828,8.828-8.828
		s8.828,3.531,8.828,8.828v26.483C194.207,67.09,190.676,70.621,185.379,70.621"/>
	<path style="fill:#E6EEF3;" d="M220.69,70.621c-5.297,0-8.828-3.531-8.828-8.828V35.31c0-5.297,3.531-8.828,8.828-8.828
		s8.828,3.531,8.828,8.828v26.483C229.517,67.09,225.986,70.621,220.69,70.621"/>
</g>
</svg>