<?xml version="1.0" standalone="no"?>
<!DOCTYPE svg PUBLIC "-//W3C//DTD SVG 20010904//EN"
 "http://www.w3.org/TR/2001/REC-SVG-20010904/DTD/svg10.dtd">
<svg version="1.0" xmlns="http://www.w3.org/2000/svg"
 width="64.000000pt" height="64.000000pt" viewBox="0 0 64.000000 64.000000"
 preserveAspectRatio="xMidYMid meet">

<g transform="translate(0.000000,64.000000) scale(0.100000,-0.100000)"
fill="#000000" stroke="none">
<path d="M235 631 c-40 -17 -57 -48 -66 -126 -10 -82 -3 -105 31 -105 19 0 40
-39 40 -74 0 -20 -13 -29 -91 -61 -68 -29 -94 -45 -105 -66 -16 -32 -19 -105
-4 -114 6 -3 10 -22 10 -41 0 -19 5 -34 10 -34 6 0 10 16 10 35 0 32 2 35 30
35 28 0 30 -3 30 -35 0 -19 4 -35 10 -35 5 0 11 52 12 122 3 108 5 123 21 126
14 3 17 -4 17 -37 0 -62 16 -71 130 -71 114 0 130 9 130 71 0 33 3 40 18 37
15 -3 17 -18 20 -126 1 -70 7 -122 12 -122 6 0 10 16 10 35 0 32 2 35 30 35
28 0 30 -3 30 -35 0 -19 5 -35 10 -35 6 0 10 15 10 34 0 19 4 38 10 41 15 9
12 82 -4 114 -11 20 -37 37 -105 66 -76 33 -91 43 -91 62 0 34 21 73 40 73 32
0 39 23 33 100 -6 74 -10 82 -64 123 -25 18 -135 23 -174 8z m184 -38 c24 -22
31 -35 31 -65 0 -21 -4 -38 -10 -38 -5 0 -10 6 -10 14 0 8 -15 23 -34 34 -34
20 -35 20 -72 1 -21 -10 -53 -19 -71 -19 -21 0 -36 -6 -39 -15 -11 -29 -24
-15 -24 25 0 30 7 47 25 65 21 22 33 25 99 25 66 0 77 -3 105 -27z m-26 -69
c14 -5 17 -18 17 -69 0 -54 -4 -66 -26 -89 -37 -36 -91 -36 -128 0 -22 22 -26
36 -26 80 l0 53 38 7 c20 4 48 13 62 20 14 7 30 11 35 9 6 -3 18 -8 28 -11z
m-183 -79 c0 -16 -6 -25 -15 -25 -9 0 -15 9 -15 25 0 16 6 25 15 25 9 0 15 -9
15 -25z m250 0 c0 -16 -6 -25 -15 -25 -9 0 -15 9 -15 25 0 16 6 25 15 25 9 0
15 -9 15 -25z m-110 -116 c26 9 30 8 30 -8 0 -9 -13 -30 -30 -46 l-30 -29 -30
29 c-16 16 -30 37 -30 46 0 16 4 17 30 8 21 -8 39 -8 60 0z m-70 -65 c20 -20
22 -27 10 -34 -9 -6 -23 -2 -42 11 -30 22 -35 35 -15 42 20 9 23 8 47 -19z
m137 10 c6 -18 -50 -54 -67 -44 -12 7 -10 14 10 35 24 26 50 30 57 9z m-134
-65 c15 15 27 14 27 -4 0 -8 5 -15 10 -15 6 0 10 7 10 15 0 18 12 19 27 4 7
-7 19 -2 42 16 l31 27 0 -41 0 -41 -110 0 -110 0 0 41 0 41 31 -27 c23 -18 35
-23 42 -16z m-153 -39 l0 -70 -40 0 -40 0 0 43 c0 50 24 79 78 96 1 1 2 -30 2
-69z m438 37 c16 -15 22 -32 22 -64 l0 -43 -40 0 -40 0 0 70 c0 76 8 81 58 37z"/>
<path d="M280 121 c0 -6 5 -13 10 -16 15 -9 12 -25 -4 -25 -7 0 -19 -7 -26
-16 -19 -22 12 -53 34 -34 9 7 16 19 16 26 0 8 5 14 10 14 6 0 10 -6 10 -14 0
-7 7 -19 16 -26 12 -11 18 -10 31 3 13 13 14 19 3 31 -7 9 -19 16 -26 16 -17
0 -18 12 -2 28 17 17 2 27 -17 12 -12 -10 -19 -10 -27 -2 -14 14 -28 15 -28 3z
m10 -71 c0 -5 -4 -10 -10 -10 -5 0 -10 5 -10 10 0 6 5 10 10 10 6 0 10 -4 10
-10z m80 0 c0 -5 -4 -10 -10 -10 -5 0 -10 5 -10 10 0 6 5 10 10 10 6 0 10 -4
10 -10z"/>
</g>
</svg>
