<?xml version="1.0" encoding="iso-8859-1"?>
<!-- Uploaded to: SVG Repo, www.svgrepo.com, Generator: SVG Repo Mixer Tools -->
<svg height="50px" width="50px" version="1.1" id="Layer_1" xmlns="http://www.w3.org/2000/svg" xmlns:xlink="http://www.w3.org/1999/xlink" 
	 viewBox="0 0 512 512" xml:space="preserve">
<path style="fill:#CCCCCC;" d="M117.548,361.568c-2.007,0-3.936-1.122-4.871-3.049l-33.724-69.447
	c-1.306-2.688-0.184-5.926,2.503-7.232c2.687-1.304,5.926-0.184,7.232,2.504l33.724,69.447c1.306,2.688,0.184,5.927-2.503,7.232
	C119.147,361.393,118.341,361.568,117.548,361.568z"/>
<path style="fill:#4A6F93;" d="M330.896,323.041H228.829c-36.966,0-66.934,29.967-66.934,66.934v98.249h235.934v-98.249
	C397.829,353.008,367.862,323.041,330.896,323.041z"/>
<polyline style="fill:#F95428;" points="322.072,295.942 322.072,417.459 237.656,417.459 237.656,295.942 "/>
<path style="fill:#3D5F7A;" d="M270.068,323.041h-41.241c-36.966,0-66.934,29.967-66.934,66.934v98.249h41.241v-98.249
	C203.136,353.008,233.103,323.041,270.068,323.041z"/>
<path style="fill:#AF7C38;" d="M145.865,343.677c-4.242-10.211-15.96-15.05-26.171-10.807l0,0
	c-10.211,4.242-15.05,15.96-10.807,26.171l53.569,128.952l29.894-28.325"/>
<polygon style="fill:#E0B394;" points="207.707,433.688 207.707,488.223 161.895,488.223 161.895,415.022 "/>
<polygon style="fill:#F7CBA4;" points="397.829,403.478 397.829,488.223 352.016,488.223 352.016,433.688 "/>
<path style="fill:#E54728;" d="M207.707,404.818v28.875h-45.812v-47.62c0-14.665,5.271-28.106,14.026-38.529l0.216,0.173
	C195.781,360.045,207.707,381.615,207.707,404.818z"/>
<path style="fill:#F95428;" d="M352.016,404.818v28.875h45.812v-47.62c0-14.665-5.271-28.106-14.026-38.529l-0.216,0.173
	C363.943,360.045,352.016,381.615,352.016,404.818z"/>
<g>
	<path style="fill:#E0B394;" d="M327.621,228.069v99.512c0,26.374-21.383,47.757-47.757,47.757
		c-26.381,0-47.757-21.383-47.757-47.757V215.083"/>
	<path style="fill:#E0B394;" d="M165.776,231.558c-13.42-0.595-24.102-11.667-24.102-25.228c0-13.94,11.299-25.249,25.249-25.249
		c1.255,0,2.489,0.087,3.701,0.271"/>
	<path style="fill:#E0B394;" d="M393.939,231.558c13.42-0.595,24.113-11.667,24.113-25.228c0-13.94-11.31-25.249-25.26-25.249
		c-1.255,0-2.5,0.097-3.701,0.271"/>
</g>
<path style="fill:#F7CBA4;" d="M360.816,308.422l-27.652,20.087l-16.234,11.797l-0.541,0.39
	c-8.593,6.234-18.377,10.022-28.409,11.331c-5.39,0.714-10.844,0.714-16.234,0c-10.043-1.31-19.827-5.097-28.409-11.331l-0.541-0.39
	l-16.234-11.797l-27.652-20.087c-23.485-17.056-36.18-45.26-33.388-74.146l7.706-79.741c5.303-54.914,51.451-96.83,106.636-96.83
	c27.587,0,52.923,10.476,72.014,27.825c19.091,17.338,31.959,41.548,34.611,69.005l7.706,79.741
	C396.986,263.162,384.291,291.366,360.816,308.422z"/>
<path style="fill:#0081C9;" d="M363.409,97.779c12.684,15.769,21.007,35.271,23.085,56.754c-32.987,0-49.34-46.874-49.34-46.874
	C344.794,100.895,353.247,102.151,363.409,97.779z"/>
<path style="fill:#E0B394;" d="M193.166,249.989c-0.747,12.63,3.366,25.054,11.504,34.741l46.432,57.057
	c2.424,2.89,5.173,5.314,8.149,7.251c-5.584-1.948-10.952-4.74-15.92-8.344l-44.427-32.273
	c-23.474-17.057-36.169-45.26-33.377-74.146l7.695-79.741c5.26-54.384,50.563-96.008,105.034-96.798
	c-33.55,0.812-71.541,32.435-73.521,66.116L193.166,249.989z"/>
<path style="fill:#0081C9;" d="M395.676,91.417c-56.278,0-71.43,48.702-104.98,61.689s-67.1-29.221-67.1-29.221
	c-55.196,0-53.442,62.533-53.442,62.533c-12.955-18.041-20.779-58.908-12.165-86.765c22.121-71.44,114.125-52.566,115.77-52.23
	c0.011,0.011,0.022,0.011,0.022,0.011c11.396-11.764,28.128-22.728,51.278-23.593c0.974-0.043,1.97-0.065,2.976-0.065
	C381.607,23.776,395.676,91.417,395.676,91.417z"/>
<g>
	<path style="fill:#0081C9;" d="M325.058,23.841c-10.931,7.338-44.622,32.955-62.587,80.575c0,0-14.665-8.907-5.888-31.104
		c2.814-7.121,8.041-15.617,16.948-25.628c0.076-0.087,0.152-0.173,0.227-0.26c0.011,0.011,0.022,0.011,0.022,0.011
		C285.177,35.67,301.909,24.707,325.058,23.841z"/>
	<path style="fill:#0081C9;" d="M170.157,186.42c-12.955-18.041-20.779-58.919-12.165-86.765
		c8.95-28.907,29.34-43.031,50.553-49.568c-18.94,14.524-18.68,40.065,15.054,73.8C168.404,123.886,170.157,186.42,170.157,186.42z"
		/>
</g>
<path style="fill:#CCCCCC;" d="M108.746,280.37c-1.126,9.264-6.396,17.966-15.206,23.074c-2.078,1.212-4.167,2.413-6.245,3.626
	C66.137,270.619,36.104,240.099,0,218.356c1.245-2.067,2.489-4.134,3.734-6.191c5.162-8.572,13.756-13.68,22.857-14.773
	c7.771-0.942,15.92,1.039,22.652,6.288c20.152,15.693,38.15,33.994,53.518,54.395C107.794,264.764,109.677,272.751,108.746,280.37z"
	/>
<path style="fill:#E6E6E6;" d="M108.746,280.37c-21.905-32.598-49.773-60.758-82.155-82.977c7.771-0.942,15.92,1.039,22.652,6.288
	c20.152,15.693,38.15,33.994,53.518,54.395C107.794,264.764,109.677,272.751,108.746,280.37z"/>
<g>
	<path style="fill:#C0E7F9;" d="M23.486,177.752c-0.649,0-1.308-0.098-1.96-0.304l-10.588-3.349
		c-3.419-1.081-5.314-4.731-4.233-8.149c1.082-3.419,4.731-5.314,8.149-4.233l10.588,3.349c3.419,1.081,5.314,4.731,4.233,8.149
		C28.8,175.982,26.242,177.752,23.486,177.752z"/>
	<path style="fill:#C0E7F9;" d="M73.779,193.659c-0.649,0-1.308-0.098-1.96-0.304l-10.588-3.349
		c-3.419-1.081-5.314-4.731-4.233-8.149c1.082-3.419,4.731-5.315,8.149-4.233l10.588,3.349c3.419,1.081,5.314,4.731,4.233,8.149
		C79.093,191.889,76.536,193.659,73.779,193.659z"/>
	<path style="fill:#C0E7F9;" d="M49.618,164.178c-0.649,0-1.308-0.098-1.96-0.304c-3.419-1.081-5.314-4.731-4.233-8.149
		l3.349-10.588c1.082-3.419,4.731-5.315,8.149-4.233c3.419,1.081,5.314,4.731,4.233,8.149l-3.349,10.588
		C54.931,162.408,52.373,164.178,49.618,164.178z"/>
</g>
<path style="fill:#0081C9;" d="M333.164,295.944v32.565l-16.234,11.797v-44.362c0-9.535-7.76-17.295-17.295-17.295h-39.535
	c-9.546,0-17.305,7.76-17.305,17.295v44.362l-16.234-11.797v-32.565c0-18.485,15.043-33.529,33.539-33.529h39.535
	C318.121,262.415,333.164,277.459,333.164,295.944z"/>
<path style="fill:#C49270;" d="M296.634,301.375h-33.55c-2.989,0-5.411-2.423-5.411-5.411c0-2.988,2.422-5.411,5.411-5.411h33.55
	c2.989,0,5.411,2.423,5.411,5.411C302.045,298.951,299.623,301.375,296.634,301.375z"/>
<path style="fill:#0081C9;" d="M287.98,320.857v31.169c-5.39,0.714-10.844,0.714-16.234,0v-31.169c0-4.481,3.626-8.117,8.117-8.117
	C284.343,312.74,287.98,316.377,287.98,320.857z"/>
<path style="fill:#4D4D4D;" d="M231.684,234.655c-4.483,0-8.117-3.634-8.117-8.117v-12.983c0-4.483,3.634-8.117,8.117-8.117
	s8.117,3.634,8.117,8.117v12.983C239.801,231.021,236.166,234.655,231.684,234.655z"/>
<g>
	<path style="fill:#666666;" d="M309.484,182.17c0,0,0.022-0.215,0.094-0.586c0.083-0.358,0.168-0.924,0.35-1.565
		c0.081-0.331,0.186-0.676,0.306-1.056c0.157-0.385,0.368-0.773,0.592-1.212c0.222-0.442,0.502-0.878,0.797-1.368
		c0.297-0.498,0.65-0.876,1.013-1.356c0.368-0.462,0.782-0.909,1.215-1.39c0.458-0.434,0.955-0.861,1.483-1.291
		c1.034-0.91,2.297-1.568,3.613-2.3c1.361-0.576,2.806-1.2,4.354-1.489c1.532-0.398,3.14-0.492,4.742-0.567
		c1.603,0.074,3.211,0.159,4.745,0.555c1.549,0.286,2.995,0.913,4.357,1.485c1.317,0.731,2.581,1.387,3.616,2.299
		c0.527,0.431,1.025,0.859,1.484,1.291c0.433,0.482,0.845,0.933,1.215,1.392c0.357,0.478,0.728,0.871,1,1.35
		c0.273,0.476,0.537,0.903,0.751,1.334c0.213,0.433,0.42,0.814,0.576,1.198c0.142,0.4,0.267,0.763,0.36,1.106
		c0.206,0.663,0.291,1.234,0.37,1.591c0.069,0.369,0.084,0.579,0.084,0.579s-0.224-0.005-0.603-0.042
		c-0.368-0.048-0.939-0.071-1.57-0.163c-0.327-0.034-0.66-0.094-1.027-0.143c-0.391-0.018-0.776-0.073-1.195-0.105
		c-0.821-0.087-1.679-0.215-2.621-0.252c-0.463-0.03-0.912-0.097-1.382-0.136c-0.486-0.006-0.965-0.031-1.442-0.067
		c-0.933-0.121-1.947-0.05-2.889-0.168c-0.99,0.036-1.938-0.085-2.92-0.055c-0.965-0.073-1.942,0.004-2.91-0.064
		c-0.969,0.066-1.945-0.018-2.912,0.052c-0.983-0.035-1.931,0.091-2.923,0.051c-0.943,0.117-1.959,0.044-2.892,0.167
		c-0.476,0.036-0.956,0.062-1.443,0.067c-0.47,0.039-0.917,0.11-1.382,0.139c-0.961,0.052-1.76,0.143-2.562,0.212
		c-0.421,0.032-0.815,0.063-1.18,0.09c-0.389,0.07-0.743,0.148-1.081,0.193c-0.655,0.116-1.227,0.143-1.591,0.189
		C309.701,182.17,309.484,182.17,309.484,182.17z"/>
	<path style="fill:#666666;" d="M213.126,182.17c0,0,0.022-0.215,0.094-0.586c0.083-0.358,0.168-0.924,0.35-1.565
		c0.081-0.331,0.186-0.676,0.306-1.056c0.157-0.385,0.368-0.773,0.592-1.212c0.222-0.442,0.502-0.878,0.797-1.368
		c0.297-0.498,0.65-0.876,1.013-1.356c0.368-0.462,0.782-0.909,1.215-1.39c0.458-0.434,0.955-0.861,1.483-1.291
		c1.034-0.91,2.297-1.568,3.613-2.3c1.361-0.576,2.806-1.2,4.354-1.489c1.532-0.398,3.14-0.492,4.742-0.567
		c1.603,0.074,3.211,0.159,4.745,0.555c1.549,0.286,2.995,0.913,4.357,1.485c1.317,0.731,2.581,1.387,3.616,2.299
		c0.527,0.431,1.025,0.859,1.484,1.291c0.433,0.482,0.845,0.933,1.215,1.392c0.357,0.478,0.728,0.871,1,1.35
		c0.273,0.476,0.537,0.903,0.751,1.334c0.213,0.433,0.42,0.814,0.576,1.198c0.142,0.4,0.267,0.763,0.36,1.106
		c0.206,0.663,0.291,1.234,0.37,1.591c0.069,0.369,0.084,0.579,0.084,0.579s-0.224-0.005-0.603-0.042
		c-0.368-0.048-0.939-0.071-1.57-0.163c-0.327-0.034-0.66-0.094-1.027-0.143c-0.391-0.018-0.776-0.073-1.195-0.105
		c-0.821-0.087-1.679-0.215-2.621-0.252c-0.463-0.03-0.912-0.097-1.382-0.136c-0.486-0.006-0.965-0.031-1.442-0.067
		c-0.933-0.121-1.947-0.05-2.889-0.168c-0.99,0.036-1.938-0.085-2.92-0.055c-0.965-0.073-1.942,0.004-2.91-0.064
		c-0.969,0.066-1.945-0.018-2.912,0.052c-0.983-0.035-1.931,0.091-2.923,0.051c-0.943,0.117-1.959,0.044-2.892,0.167
		c-0.476,0.036-0.956,0.062-1.443,0.067c-0.47,0.039-0.917,0.11-1.382,0.139c-0.961,0.052-1.76,0.143-2.562,0.212
		c-0.421,0.032-0.815,0.063-1.18,0.09c-0.389,0.07-0.744,0.148-1.081,0.193c-0.655,0.116-1.227,0.143-1.591,0.189
		C213.343,182.17,213.126,182.17,213.126,182.17z"/>
</g>
<path style="fill:#4D4D4D;" d="M328.042,234.655c-4.483,0-8.117-3.634-8.117-8.117v-12.983c0-4.483,3.634-8.117,8.117-8.117
	s8.117,3.634,8.117,8.117v12.983C336.159,231.021,332.525,234.655,328.042,234.655z"/>
<path style="fill:#E0B394;" d="M292.309,201.65v38.42c0,6.873-5.573,12.446-12.446,12.446l0,0c-6.873,0-12.446-5.573-12.446-12.446
	v-38.42"/>
<path style="fill:#B3B3B3;" d="M454.282,411.205l-10.687-23.155l18.722-40.565c3.757-8.141,0.203-17.785-7.936-21.542l0,0
	l-19.725,42.739l-19.725-42.739l0,0c-8.141,3.757-11.694,13.402-7.936,21.542l18.722,40.565l-10.687,23.155
	c-6.057-8.291-2.248,43.361,2.933,32.715c0.896-1.84,16.693-36.5,16.693-36.5s15.582,34.07,16.297,35.655
	C455.957,454.174,460.339,402.913,454.282,411.205z"/>
<path style="fill:#71C5F4;" d="M511.935,427.929c-1.017-16.147-14.351-29.167-30.509-29.838
	c-11.137-0.455-21.083,4.827-27.143,13.117l-3.734-8.106l-12.262,12.262c4.654,10.163,12.175,26.624,12.673,27.706
	c5,11.104,16.169,18.853,29.113,18.853C498.363,461.923,513.104,446.468,511.935,427.929z M480.073,445.689
	c-8.647,0-15.693-7.046-15.693-15.693c0-8.658,7.046-15.693,15.693-15.693c8.658,0,15.693,7.035,15.693,15.693
	C495.766,438.644,488.731,445.689,480.073,445.689z M418.774,403.102l-3.745,8.106c-6.05-8.29-16.007-13.572-27.132-13.117
	c-16.169,0.671-29.492,13.691-30.52,29.838c-1.169,18.539,13.572,33.994,31.862,33.994c12.619,0,23.539-7.359,28.723-18.009
	c0.617-1.266,8.355-18.204,13.074-28.55L418.774,403.102z M389.239,445.689c-8.647,0-15.693-7.046-15.693-15.693
	c0-8.658,7.046-15.693,15.693-15.693c8.658,0,15.693,7.035,15.693,15.693C404.932,438.644,397.897,445.689,389.239,445.689z"/>
</svg>